<svg xmlns="http://www.w3.org/2000/svg" width="760" height="420" viewBox="0 0 760 420">
<rect width="760" height="420" fill="none"/>
<path d="M75 95h610a40 40 0 0 1 40 40v48a44 44 0 0 0 0 88v14a40 40 0 0 1-40 40H75a40 40 0 0 1-40-40v-14a44 44 0 0 0 0-88v-48a40 40 0 0 1 40-40z" fill="#fde047"/>
<path d="M540 110v200" stroke="#111827" stroke-width="8" stroke-dasharray="20 14"/>
<text x="105" y="175" fill="#111827" font-size="45" font-weight="900" font-family="Arial">FESTIVAL PASS</text>
<text x="105" y="238" fill="#111827" font-size="29" font-weight="700" font-family="Arial">YEAR 9 ENRICHMENT</text>
<text x="585" y="195" fill="#111827" font-size="30" font-family="Arial" transform="rotate(90 585,195)">ADMIT ONE</text>
</svg>